<svg width="103" height="100" viewBox="0 0 103 100" fill="none" xmlns="http://www.w3.org/2000/svg">
<path d="M45.0625 6.25H48.2812V18.75H45.0625V6.25Z" fill="url(#paint0_linear_10_28)"/>
<path d="M54.7188 6.25H57.9375V18.75H54.7188V6.25Z" fill="url(#paint1_linear_10_28)"/>
<path d="M67.5938 21.875V0H35.4062V21.875H28.9688V100H74.0312V21.875H67.5938ZM38.625 3.125H64.375V21.875H38.625V3.125ZM70.8125 96.875H32.1875V25H70.8125V96.875Z" fill="url(#paint2_linear_10_28)"/>
<path d="M38.6248 62.2124V71.3425L49.8905 76.03V81.5376C47.6736 82.2983 46.3432 84.4994 46.7409 86.7493C47.1385 88.9999 49.1486 90.6441 51.4998 90.6441C53.851 90.6441 55.8612 88.9999 56.2588 86.7493C56.6564 84.4994 55.326 82.2983 53.1092 81.5376V70.2126L64.3748 60.0563V53.125H67.5936V43.75H57.9373V53.125H61.1561V58.6922L53.1092 65.9485V37.1094L56.2588 40.1672L58.5346 37.9578L51.4998 31.1279L44.4651 37.9578L46.7409 40.1672L49.8905 37.1094V72.6311L41.8436 69.2825V62.2124C44.0604 61.4517 45.3908 59.2506 44.9932 57.0007C44.5955 54.7501 42.5854 53.1059 40.2342 53.1059C37.883 53.1059 35.8729 54.7501 35.4752 57.0007C35.0776 59.2506 36.408 61.4517 38.6248 62.2124ZM61.1561 46.875H64.3748V50H61.1561V46.875ZM51.4998 84.375C52.3886 84.375 53.1092 85.0746 53.1092 85.9375C53.1092 86.8004 52.3886 87.5 51.4998 87.5C50.6111 87.5 49.8905 86.8004 49.8905 85.9375C49.8905 85.0746 50.6111 84.375 51.4998 84.375ZM40.2342 56.25C41.123 56.25 41.8436 56.9496 41.8436 57.8125C41.8436 58.6754 41.123 59.375 40.2342 59.375C39.3454 59.375 38.6248 58.6754 38.6248 57.8125C38.6248 56.9496 39.3454 56.25 40.2342 56.25Z" fill="url(#paint3_linear_10_28)"/>
<defs>
<linearGradient id="paint0_linear_10_28" x1="45.3915" y1="6.25" x2="48.1823" y2="6.30356" gradientUnits="userSpaceOnUse">
<stop stop-color="#C89AFC"/>
<stop offset="1" stop-color="#7C6AFA"/>
</linearGradient>
<linearGradient id="paint1_linear_10_28" x1="55.0477" y1="6.25" x2="57.8385" y2="6.30356" gradientUnits="userSpaceOnUse">
<stop stop-color="#C89AFC"/>
<stop offset="1" stop-color="#7C6AFA"/>
</linearGradient>
<linearGradient id="paint2_linear_10_28" x1="33.5746" y1="-1.0863e-05" x2="72.6157" y2="1.31132" gradientUnits="userSpaceOnUse">
<stop stop-color="#C89AFC"/>
<stop offset="1" stop-color="#7C6AFA"/>
</linearGradient>
<linearGradient id="paint3_linear_10_28" x1="38.6952" y1="31.1279" x2="66.5686" y2="32.2516" gradientUnits="userSpaceOnUse">
<stop stop-color="#C89AFC"/>
<stop offset="1" stop-color="#7C6AFA"/>
</linearGradient>
</defs>
</svg>
