<svg width="103" height="100" viewBox="0 0 103 100" fill="none" xmlns="http://www.w3.org/2000/svg">
<path d="M9.65625 20.3125H6.4375V12.5H14.4844V15.625H9.65625V20.3125Z" fill="url(#paint0_linear_10_14)"/>
<path d="M67.5938 81.25H64.375V78.125H67.5938V81.25ZM61.1562 81.25H57.9375V78.125H61.1562V81.25ZM54.7188 81.25H51.5V78.125H54.7188V81.25ZM48.2812 81.25H45.0625V78.125H48.2812V81.25ZM41.8438 81.25H38.625V78.125H41.8438V81.25ZM35.4062 81.25H32.1875V78.125H35.4062V81.25ZM28.9688 81.25H25.75V78.125H28.9688V81.25ZM22.5312 81.25H19.3125V78.125H22.5312V81.25ZM16.0938 81.25H12.875V78.125H16.0938V81.25ZM9.65625 81.25H6.4375V78.125H9.65625V81.25Z" fill="url(#paint1_linear_10_14)"/>
<path d="M67.5938 87.5H64.375V84.375H67.5938V87.5ZM61.1562 87.5H57.9375V84.375H61.1562V87.5ZM54.7188 87.5H51.5V84.375H54.7188V87.5ZM48.2812 87.5H45.0625V84.375H48.2812V87.5ZM41.8438 87.5H38.625V84.375H41.8438V87.5ZM35.4062 87.5H32.1875V84.375H35.4062V87.5ZM28.9688 87.5H25.75V84.375H28.9688V87.5ZM22.5312 87.5H19.3125V84.375H22.5312V87.5ZM16.0938 87.5H12.875V84.375H16.0938V87.5ZM9.65625 87.5H6.4375V84.375H9.65625V87.5Z" fill="url(#paint2_linear_10_14)"/>
<path d="M83.6875 12.5H96.5625V15.625H83.6875V12.5Z" fill="url(#paint3_linear_10_14)"/>
<path d="M83.6875 18.75H96.5625V21.875H83.6875V18.75Z" fill="url(#paint4_linear_10_14)"/>
<path d="M83.6875 25H96.5625V28.125H83.6875V25Z" fill="url(#paint5_linear_10_14)"/>
<path d="M67.5938 34.375H59.5469V31.25H64.375V26.5625H67.5938V34.375Z" fill="url(#paint6_linear_10_14)"/>
<path d="M98.1719 6.25H82.0781C79.4118 6.25 77.25 8.34885 77.25 10.9375V65.625H103V10.9375C103 8.34885 100.838 6.25 98.1719 6.25ZM99.7812 62.5H80.4688V10.9375C80.4688 10.0746 81.1894 9.375 82.0781 9.375H98.1719C99.0606 9.375 99.7812 10.0746 99.7812 10.9375V62.5Z" fill="url(#paint7_linear_10_14)"/>
<path d="M69.2031 71.875H4.82812C2.16181 71.875 0 73.9738 0 76.5625V89.0625C0 91.6512 2.16181 93.75 4.82812 93.75H69.2031C71.8694 93.75 74.0312 91.6512 74.0312 89.0625V76.5625C74.0312 73.9738 71.8694 71.875 69.2031 71.875ZM70.8125 89.0625C70.8125 89.9254 70.0919 90.625 69.2031 90.625H4.82812C3.93935 90.625 3.21875 89.9254 3.21875 89.0625V76.5625C3.21875 75.6996 3.93935 75 4.82812 75H69.2031C70.0919 75 70.8125 75.6996 70.8125 76.5625V89.0625Z" fill="url(#paint8_linear_10_14)"/>
<path d="M88.5156 71.875C84.0733 71.8803 80.4743 75.3746 80.4688 79.6875V85.9375C80.4688 90.2519 84.0718 93.75 88.5156 93.75C92.9595 93.75 96.5625 90.2519 96.5625 85.9375V79.6875C96.557 75.3746 92.9579 71.8803 88.5156 71.875ZM93.3438 85.9375C93.3438 88.5262 91.1819 90.625 88.5156 90.625C85.8493 90.625 83.6875 88.5262 83.6875 85.9375V79.6875C83.6961 77.7084 84.9841 75.9476 86.9062 75.2876V81.25H90.125V75.2876C92.0471 75.9476 93.3351 77.7084 93.3438 79.6875V85.9375Z" fill="url(#paint9_linear_10_14)"/>
<path d="M69.2031 6.25H4.82812C2.16181 6.25 0 8.34885 0 10.9375V48.4375C0 51.0262 2.16181 53.125 4.82812 53.125H27.3594V59.6359C27.3578 61.2167 26.0376 62.4985 24.4094 62.5H19.3125V65.625H51.5V62.5H46.4031C44.7749 62.4985 43.4547 61.2167 43.4531 59.6359V53.125H69.2031C71.8694 53.125 74.0312 51.0262 74.0312 48.4375V10.9375C74.0312 8.34885 71.8694 6.25 69.2031 6.25ZM29.8253 62.5C30.3204 61.6219 30.5797 60.6369 30.5781 59.6359V53.125H33.7969V59.7656H37.0156V53.125H40.2344V59.6359C40.2328 60.6369 40.4921 61.6219 40.9872 62.5H29.8253ZM70.8125 48.4375C70.8125 49.3004 70.0919 50 69.2031 50H4.82812C3.93935 50 3.21875 49.3004 3.21875 48.4375V40.625H70.8125V48.4375ZM70.8125 37.5H3.21875V10.9375C3.21875 10.0746 3.93935 9.375 4.82812 9.375H69.2031C70.0919 9.375 70.8125 10.0746 70.8125 10.9375V37.5Z" fill="url(#paint10_linear_10_14)"/>
<path d="M91.7341 47.097V43.75H88.5154V47.097C85.3768 47.8836 83.3297 50.8141 83.7383 53.936C84.147 57.058 86.8832 59.3987 90.1248 59.3987C93.3663 59.3987 96.1025 57.058 96.5112 53.936C96.9198 50.8141 94.8727 47.8836 91.7341 47.097ZM90.1248 56.25C88.6702 56.2538 87.3948 55.307 87.0176 53.9429C86.6404 52.5787 87.2549 51.1391 88.5154 50.4341V53.125H91.7341V50.4341C92.9946 51.1391 93.6091 52.5787 93.2319 53.9429C92.8547 55.307 91.5793 56.2538 90.1248 56.25Z" fill="url(#paint11_linear_10_14)"/>
<path d="M33.7969 43.75H37.0156V46.875H33.7969V43.75Z" fill="url(#paint12_linear_10_14)"/>
<defs>
<linearGradient id="paint0_linear_10_14" x1="7.25997" y1="12.5" x2="14.1986" y2="13.0327" gradientUnits="userSpaceOnUse">
<stop stop-color="#C89AFC"/>
<stop offset="1" stop-color="#7C6AFA"/>
</linearGradient>
<linearGradient id="paint1_linear_10_14" x1="12.6883" y1="78.125" x2="29.6472" y2="102.863" gradientUnits="userSpaceOnUse">
<stop stop-color="#C89AFC"/>
<stop offset="1" stop-color="#7C6AFA"/>
</linearGradient>
<linearGradient id="paint2_linear_10_14" x1="12.6883" y1="84.375" x2="29.6472" y2="109.113" gradientUnits="userSpaceOnUse">
<stop stop-color="#C89AFC"/>
<stop offset="1" stop-color="#7C6AFA"/>
</linearGradient>
<linearGradient id="paint3_linear_10_14" x1="85.0035" y1="12.5" x2="95.2083" y2="15.6338" gradientUnits="userSpaceOnUse">
<stop stop-color="#C89AFC"/>
<stop offset="1" stop-color="#7C6AFA"/>
</linearGradient>
<linearGradient id="paint4_linear_10_14" x1="85.0035" y1="18.75" x2="95.2083" y2="21.8838" gradientUnits="userSpaceOnUse">
<stop stop-color="#C89AFC"/>
<stop offset="1" stop-color="#7C6AFA"/>
</linearGradient>
<linearGradient id="paint5_linear_10_14" x1="85.0035" y1="25" x2="95.2083" y2="28.1338" gradientUnits="userSpaceOnUse">
<stop stop-color="#C89AFC"/>
<stop offset="1" stop-color="#7C6AFA"/>
</linearGradient>
<linearGradient id="paint6_linear_10_14" x1="60.3693" y1="26.5625" x2="67.3079" y2="27.0952" gradientUnits="userSpaceOnUse">
<stop stop-color="#C89AFC"/>
<stop offset="1" stop-color="#7C6AFA"/>
</linearGradient>
<linearGradient id="paint7_linear_10_14" x1="79.8819" y1="6.24999" x2="102.193" y2="6.97122" gradientUnits="userSpaceOnUse">
<stop stop-color="#C89AFC"/>
<stop offset="1" stop-color="#7C6AFA"/>
</linearGradient>
<linearGradient id="paint8_linear_10_14" x1="7.56673" y1="71.875" x2="67.9366" y2="87.1037" gradientUnits="userSpaceOnUse">
<stop stop-color="#C89AFC"/>
<stop offset="1" stop-color="#7C6AFA"/>
</linearGradient>
<linearGradient id="paint9_linear_10_14" x1="82.1137" y1="71.875" x2="96.0308" y2="72.6382" gradientUnits="userSpaceOnUse">
<stop stop-color="#C89AFC"/>
<stop offset="1" stop-color="#7C6AFA"/>
</linearGradient>
<linearGradient id="paint10_linear_10_14" x1="7.56673" y1="6.24999" x2="71.2283" y2="12.1665" gradientUnits="userSpaceOnUse">
<stop stop-color="#C89AFC"/>
<stop offset="1" stop-color="#7C6AFA"/>
</linearGradient>
<linearGradient id="paint11_linear_10_14" x1="85.0026" y1="43.75" x2="96.1292" y2="44.4324" gradientUnits="userSpaceOnUse">
<stop stop-color="#C89AFC"/>
<stop offset="1" stop-color="#7C6AFA"/>
</linearGradient>
<linearGradient id="paint12_linear_10_14" x1="34.1259" y1="43.75" x2="36.9013" y2="43.9631" gradientUnits="userSpaceOnUse">
<stop stop-color="#C89AFC"/>
<stop offset="1" stop-color="#7C6AFA"/>
</linearGradient>
</defs>
</svg>
