<svg width="52" height="50" viewBox="0 0 52 50" fill="none" xmlns="http://www.w3.org/2000/svg">
<ellipse cx="25.7683" cy="25" rx="25.7683" ry="25" fill="url(#paint0_linear_210_9)"/>
<g clip-path="url(#clip0_210_9)">
<path d="M30.4067 13H21.1301C16.8614 13 13.3997 16.3585 13.3997 20.5V29.5C13.3997 33.6415 16.8614 37 21.1301 37H30.4067C34.6755 37 38.1372 33.6415 38.1372 29.5V20.5C38.1372 16.3585 34.6755 13 30.4067 13ZM35.8181 29.5C35.8181 32.395 33.3907 34.75 30.4067 34.75H21.1301C18.1462 34.75 15.7188 32.395 15.7188 29.5V20.5C15.7188 17.605 18.1462 15.25 21.1301 15.25H30.4067C33.3907 15.25 35.8181 17.605 35.8181 20.5V29.5Z" fill="white"/>
<path d="M25.7684 19C22.353 19 19.584 21.6865 19.584 25C19.584 28.3135 22.353 31 25.7684 31C29.1837 31 31.9528 28.3135 31.9528 25C31.9528 21.6865 29.1837 19 25.7684 19ZM25.7684 28.75C23.6379 28.75 21.9031 27.067 21.9031 25C21.9031 22.9315 23.6379 21.25 25.7684 21.25C27.8989 21.25 29.6336 22.9315 29.6336 25C29.6336 27.067 27.8989 28.75 25.7684 28.75Z" fill="white"/>
<path d="M32.4146 19.35C32.8698 19.35 33.2387 18.992 33.2387 18.5505C33.2387 18.1089 32.8698 17.751 32.4146 17.751C31.9595 17.751 31.5906 18.1089 31.5906 18.5505C31.5906 18.992 31.9595 19.35 32.4146 19.35Z" fill="white"/>
</g>
<defs>
<linearGradient id="paint0_linear_210_9" x1="5.26755" y1="-5.43152e-06" x2="49.7058" y2="3.4141" gradientUnits="userSpaceOnUse">
<stop stop-color="#C89AFC"/>
<stop offset="1" stop-color="#7C6AFA"/>
</linearGradient>
<clipPath id="clip0_210_9">
<rect width="24.7376" height="24" fill="white" transform="translate(13.3997 13)"/>
</clipPath>
</defs>
</svg>
