<svg width="52" height="50" viewBox="0 0 52 50" fill="none" xmlns="http://www.w3.org/2000/svg">
<path d="M51.5366 25C51.5366 38.8071 39.9997 50 25.7683 50C11.5369 50 0 38.8071 0 25C0 11.1929 11.5369 0 25.7683 0C39.9997 0 51.5366 11.1929 51.5366 25Z" fill="url(#paint0_linear_210_6)"/>
<g clip-path="url(#clip0_210_6)">
<path fill-rule="evenodd" clip-rule="evenodd" d="M36.019 27.618C36.019 27.618 38.019 29.5344 38.5138 30.4212C38.5234 30.434 38.5309 30.4482 38.5361 30.4632C38.7377 30.7908 38.7871 31.0476 38.6882 31.2372C38.5212 31.5504 37.956 31.7076 37.7642 31.7208H34.2292C33.9831 31.7208 33.471 31.6584 32.8477 31.2408C32.3715 30.918 31.8977 30.3864 31.4389 29.8668C30.7536 29.0952 30.1612 28.4256 29.5613 28.4256C29.4855 28.4254 29.4102 28.4376 29.3386 28.4616C28.8847 28.6008 28.3083 29.2284 28.3083 30.9C28.3083 31.4232 27.8828 31.7208 27.5847 31.7208H25.9657C25.414 31.7208 22.542 31.5336 19.9953 28.9284C16.8746 25.7388 14.0719 19.3404 14.0446 19.284C13.8702 18.87 14.2364 18.6444 14.6322 18.6444H18.2018C18.6805 18.6444 18.8363 18.9252 18.9451 19.1772C19.0713 19.4664 19.5389 20.6232 20.3057 21.9228C21.5475 24.0372 22.3107 24.8976 22.9205 24.8976C23.035 24.8979 23.1477 24.869 23.247 24.8136C24.0436 24.3888 23.8951 21.6288 23.858 21.06C23.858 20.9496 23.8568 19.8276 23.4486 19.2852C23.1567 18.8964 22.6595 18.7452 22.3589 18.69C22.4393 18.5772 22.61 18.4044 22.8289 18.3024C23.3744 18.0384 24.3602 18 25.3386 18H25.8816C26.9428 18.0144 27.2174 18.0804 27.6033 18.1752C28.3801 18.3552 28.3949 18.8436 28.3269 20.5068C28.3071 20.982 28.286 21.5172 28.286 22.1472C28.286 22.2816 28.2799 22.4316 28.2799 22.584C28.2564 23.4372 28.2254 24.3984 28.8464 24.7932C28.9269 24.8419 29.0199 24.8676 29.1148 24.8676C29.33 24.8676 29.9744 24.8676 31.7221 21.9576C32.489 20.6724 33.0827 19.1568 33.1235 19.0428C33.1581 18.9792 33.262 18.8004 33.3882 18.7284C33.4779 18.6821 33.5784 18.6589 33.6801 18.6612H37.8793C38.3369 18.6612 38.6474 18.7284 38.708 18.8964C38.8094 19.1688 38.6882 20.0004 36.771 22.5156C36.4482 22.9344 36.165 23.2968 35.9163 23.6136C34.1785 25.8264 34.1785 25.938 36.019 27.618V27.618Z" fill="white"/>
</g>
<defs>
<linearGradient id="paint0_linear_210_6" x1="5.26755" y1="-5.43152e-06" x2="49.7058" y2="3.4141" gradientUnits="userSpaceOnUse">
<stop stop-color="#C89AFC"/>
<stop offset="1" stop-color="#7C6AFA"/>
</linearGradient>
<clipPath id="clip0_210_6">
<rect x="14" y="13" width="24.7376" height="24" fill="white"/>
</clipPath>
</defs>
</svg>
