<svg width="52" height="50" viewBox="0 0 52 50" fill="none" xmlns="http://www.w3.org/2000/svg">
<ellipse cx="25.7683" cy="25" rx="25.7683" ry="25" fill="url(#paint0_linear_210_7)"/>
<path d="M36.1347 19.9451C36.0115 19.5012 35.7703 19.0964 35.4352 18.7713C35.1001 18.4462 34.6829 18.2121 34.2252 18.0926C32.54 17.6501 25.7681 17.6501 25.7681 17.6501C25.7681 17.6501 18.9962 17.6501 17.3109 18.0926C16.8533 18.2121 16.4361 18.4462 16.101 18.7713C15.7659 19.0964 15.5247 19.5012 15.4015 19.9451C15.0868 21.6126 14.9341 23.305 14.9454 25.0001C14.9341 26.6953 15.0868 28.3877 15.4015 30.0551C15.5247 30.4991 15.7659 30.9039 16.101 31.229C16.4361 31.5541 16.8533 31.7881 17.3109 31.9076C18.9962 32.3501 25.7681 32.3501 25.7681 32.3501C25.7681 32.3501 32.54 32.3501 34.2252 31.9076C34.6829 31.7881 35.1001 31.5541 35.4352 31.229C35.7703 30.9039 36.0115 30.4991 36.1347 30.0551C36.4493 28.3877 36.602 26.6953 36.5908 25.0001C36.602 23.305 36.4493 21.6126 36.1347 19.9451V19.9451ZM23.6036 28.1501V21.8501L29.2236 25.0001L23.6036 28.1501Z" fill="white"/>
<defs>
<linearGradient id="paint0_linear_210_7" x1="5.26755" y1="-5.43152e-06" x2="49.7058" y2="3.4141" gradientUnits="userSpaceOnUse">
<stop stop-color="#C89AFC"/>
<stop offset="1" stop-color="#7C6AFA"/>
</linearGradient>
</defs>
</svg>
